<svg xmlns="http://www.w3.org/2000/svg">
    <symbol id="app-color-icon" viewBox="0 0 926 926">
        <path fill-rule="evenodd" fill="white" d="
            M 463,924.126994967461
            C 208.734392404556,924.126994967461 1.87300503253937,717.265607595444 1.87300503253937,463
            C 1.87300503253937,208.734392404556 208.734392404556,1.87300503253937 463,1.87300503253937
            C 717.267539381981,1.87300503253937 924.126994967461,208.734392404556 924.126994967461,463
            C 924.126994967461,717.265607595444 717.267539381981,924.126994967461 463,924.126994967461
            C 463,924.126994967461 463,924.126994967461 463,924.126994967461
            Z
        " />
        <path fill-rule="evenodd" fill="inherit" d="
            M 463,924.126994967461
            C 208.734392404556,924.126994967461 1.87300503253937,717.265607595444 1.87300503253937,463
            C 1.87300503253937,208.734392404556 208.734392404556,1.87300503253937 463,1.87300503253937
            C 717.267539381981,1.87300503253937 924.126994967461,208.734392404556 924.126994967461,463
            C 924.126994967461,717.265607595444 717.267539381981,924.126994967461 463,924.126994967461
            Z
            M 463,69.7690097093582
            C 246.170704483986,69.7690097093582 69.7690097093582,246.170704483986 69.7690097093582,463
            C 69.7690097093582,679.829295516014 246.170704483986,856.230990290642 463,856.230990290642
            C 679.827418923378,856.230990290642 856.230990290642,679.829295516014 856.230990290642,463
            C 856.230990290642,246.170704483986 679.827418923378,69.7690097093582 463,69.7690097093582
            Z
            M 642.820515394211,323.846185326576
            C 613.524531006813,323.846185326576 592.847019076347,300.580576181412 592.847019076347,269.560223937035
            C 592.847019076347,238.53998208046 614.385721445084,215.274372935295 644.542344331741,215.274372935295
            C 674.703989863396,215.274372935295 695.379514813423,237.678791642189 695.379514813423,269.560223937035
            C 695.379514813423,300.580576181412 674.703989863396,323.846185326576 642.820515394211,323.846185326576
            Z
            M 463.707972168922,774.72565984726
            C 434.412539720535,774.72565984726 413.732488870621,751.459995508194 413.732488870621,720.439753651619
            C 413.732488870621,689.419456601143 435.273730158806,666.153792262077 465.432836771011,666.153792262077
            C 495.591998577118,666.153792262077 516.272049427032,688.558210968971 516.272049427032,720.439753651619
            C 516.272049427032,751.459995508194 495.591998577118,774.72565984726 463.707972168922,774.72565984726
            Z
            M 463.707972168922,624.434543848038
            C 434.412539720535,624.434543848038 413.732488870621,601.168934702873 413.732488870621,570.148692846298
            C 413.732488870621,539.128340601921 435.273730158806,515.862731456757 465.432836771011,515.862731456757
            C 495.591998577118,515.862731456757 516.272049427032,538.267150163651 516.272049427032,570.148692846298
            C 516.272049427032,601.168934702873 495.591998577118,624.434543848038 463.707972168922,624.434543848038
            Z
            M 463.707972168922,474.137246131897
            C 434.412539720535,474.137246131897 413.732488870621,450.871636986732 413.732488870621,419.851339936256
            C 413.732488870621,388.83104288578 435.273730158806,365.565433740616 465.432836771011,365.565433740616
            C 495.591998577118,365.565433740616 516.272049427032,387.96985244751 516.272049427032,419.851339936256
            C 516.272049427032,450.871636986732 495.591998577118,474.137246131897 463.707972168922,474.137246131897
            Z
            M 463.707972168922,323.846185326576
            C 434.412539720535,323.846185326576 413.732488870621,300.580576181412 413.732488870621,269.560223937035
            C 413.732488870621,238.53998208046 435.273730158806,215.274372935295 465.432836771011,215.274372935295
            C 495.591998577118,215.274372935295 516.272049427032,237.678791642189 516.272049427032,269.560223937035
            C 516.272049427032,300.580576181412 495.591998577118,323.846185326576 463.707972168922,323.846185326576
            Z
            M 284.592834830284,323.846185326576
            C 255.297347187996,323.846185326576 234.617351531982,300.580576181412 234.617351531982,269.560223937035
            C 234.617351531982,238.53998208046 256.158592820168,215.274372935295 286.317699432373,215.274372935295
            C 316.474322319031,215.274372935295 337.154373168945,237.678791642189 337.154373168945,269.560223937035
            C 337.154373168945,300.580576181412 316.474322319031,323.846185326576 284.592834830284,323.846185326576
            Z
        " />
    </symbol>
</svg>
