<svg xmlns="http://www.w3.org/2000/svg">
    <symbol id="app-color-icon" viewBox="0 0 924 924">
        <path fill-rule="evenodd" fill="white" d="
            M 462,922.79997754097
            C 207.507284402847,922.79997754097 1.20002245903015,716.492715597153 1.20002245903015,462
            C 1.20002245903015,207.507284402847 207.507284402847,1.20002245903015 462,1.20002245903015
            C 716.492715597153,1.20002245903015 922.79997754097,207.507284402847 922.79997754097,462
            C 922.79997754097,716.492715597153 716.492715597153,922.79997754097 462,922.79997754097
            Z
        " />
        <path fill-rule="evenodd" fill="inherit" d="
            M 462,922.79997754097
            C 207.507284402847,922.79997754097 1.20002245903015,716.492715597153 1.20002245903015,462
            C 1.20002245903015,207.507284402847 207.507284402847,1.20002245903015 462,1.20002245903015
            C 716.492715597153,1.20002245903015 922.79997754097,207.507284402847 922.79997754097,462
            C 922.79997754097,716.492715597153 716.492715597153,922.79997754097 462,922.79997754097
            Z
            M 462,74.3428480625153
            C 247.902973651886,74.3428480625153 74.3428480625153,247.902973651886 74.3428480625153,462
            C 74.3428480625153,676.097026348114 247.902973651886,849.657151937485 462,849.657151937485
            C 676.097026348114,849.657151937485 849.657151937485,676.097026348114 849.657151937485,462
            C 849.657151937485,247.902973651886 676.097026348114,74.3428480625153 462,74.3428480625153
            Z
            M 639.820483446121,320.846208572388
            C 610.524547576904,320.846208572388 589.847029924393,297.580565929413 589.847029924393,266.5602414608
            C 589.847029924393,235.539972066879 611.38575053215,212.274329423904 641.542338609695,212.274329423904
            C 671.703993558884,212.274329423904 692.379528522491,234.678769111633 692.379528522491,266.5602414608
            C 692.379528522491,297.580565929413 671.703993558884,320.846208572388 639.820483446121,320.846208572388
            Z
            M 460.707947731018,771.725636959076
            C 431.412562608719,771.725636959076 410.732456445694,748.459994316101 410.732456445694,717.439779996872
            C 410.732456445694,686.419455528259 432.273765563965,663.153812885284 462.432887077332,663.153812885284
            C 492.591953516006,663.153812885284 513.272059679031,685.558252573013 513.272059679031,717.439779996872
            C 513.272059679031,748.459994316101 492.591953516006,771.725636959076 460.707947731018,771.725636959076
            Z
            M 460.707947731018,621.43456864357
            C 431.412562608719,621.43456864357 410.732456445694,598.168926000595 410.732456445694,567.148656606674
            C 410.732456445694,536.128332138062 432.273765563965,512.862744569778 462.432887077332,512.862744569778
            C 492.591953516006,512.862744569778 513.272059679031,535.267129182816 513.272059679031,567.148656606674
            C 513.272059679031,598.168926000595 492.591953516006,621.43456864357 460.707947731018,621.43456864357
            Z
            M 460.707947731018,471.137276887894
            C 431.412562608719,471.137276887894 410.732456445694,447.871634244919 410.732456445694,416.851309776306
            C 410.732456445694,385.831040382385 432.273765563965,362.565452814102 462.432887077332,362.565452814102
            C 492.591953516006,362.565452814102 513.272059679031,384.969837427139 513.272059679031,416.851309776306
            C 513.272059679031,447.871634244919 492.591953516006,471.137276887894 460.707947731018,471.137276887894
            Z
            M 460.707947731018,320.846208572388
            C 431.412562608719,320.846208572388 410.732456445694,297.580565929413 410.732456445694,266.5602414608
            C 410.732456445694,235.539972066879 432.273765563965,212.274329423904 462.432887077332,212.274329423904
            C 492.591953516006,212.274329423904 513.272059679031,234.678769111633 513.272059679031,266.5602414608
            C 513.272059679031,297.580565929413 492.591953516006,320.846208572388 460.707947731018,320.846208572388
            Z
            M 281.592823505402,320.846208572388
            C 252.297383308411,320.846208572388 231.617387294769,297.580565929413 231.617387294769,266.5602414608
            C 231.617387294769,235.539972066879 253.158586263657,212.274329423904 283.317707777023,212.274329423904
            C 313.474295854568,212.274329423904 334.154346942902,234.678769111633 334.154346942902,266.5602414608
            C 334.154346942902,297.580565929413 313.474295854568,320.846208572388 281.592823505402,320.846208572388
            Z
        " />
    </symbol>
</svg>
